<?xml version="1.0" standalone="no"?>
<!DOCTYPE svg PUBLIC "-//W3C//DTD SVG 20010904//EN"
 "http://www.w3.org/TR/2001/REC-SVG-20010904/DTD/svg10.dtd">
<svg version="1.0" xmlns="http://www.w3.org/2000/svg"
 width="71.000000pt" height="71.000000pt" viewBox="0 0 71.000000 71.000000"
 preserveAspectRatio="xMidYMid meet">

<g transform="translate(0.000000,71.000000) scale(0.100000,-0.100000)"
fill="#000000" stroke="none">
<path d="M420 552 c0 -20 110 -132 130 -132 6 0 13 7 17 16 4 10 -13 35 -53
75 -59 60 -94 75 -94 41z"/>
<path d="M343 544 c-4 -10 8 -30 33 -55 l38 -39 -69 -70 c-38 -39 -74 -70 -80
-70 -6 0 -24 13 -40 30 -32 33 -60 39 -69 14 -8 -20 159 -194 186 -194 35 0
32 30 -6 69 l-36 37 75 74 75 74 34 -33 c34 -33 65 -38 74 -13 5 17 -167 192
-190 192 -10 0 -21 -7 -25 -16z"/>
<path d="M496 548 c15 -28 38 -48 52 -48 11 0 7 9 -13 30 -29 30 -52 41 -39
18z"/>
<path d="M140 273 c0 -18 111 -133 129 -133 6 0 14 7 18 16 4 10 -13 35 -53
75 -58 58 -94 75 -94 42z"/>
<path d="M150 212 c0 -5 14 -21 30 -37 21 -20 30 -24 30 -14 0 9 -10 25 -23
37 -24 23 -37 28 -37 14z"/>
</g>
</svg>
