<svg width="37" height="37" viewBox="0 0 37 37" fill="none" xmlns="http://www.w3.org/2000/svg">
<path d="M33.9167 26.0849V30.7099C33.9184 31.1393 33.8305 31.5643 33.6585 31.9577C33.4865 32.3511 33.2342 32.7042 32.9178 32.9945C32.6014 33.2847 32.2279 33.5057 31.8212 33.6433C31.4145 33.7808 30.9835 33.8319 30.5559 33.7933C25.8119 33.2778 21.255 31.6568 17.2513 29.0604C13.5264 26.6934 10.3683 23.5353 8.00129 19.8104C5.39584 15.7885 3.77441 11.2094 3.26837 6.44411C3.22985 6.01779 3.28051 5.58812 3.41714 5.18245C3.55378 4.77678 3.77338 4.40401 4.06197 4.08786C4.35056 3.77172 4.70182 3.51912 5.09338 3.34617C5.48495 3.17321 5.90823 3.08368 6.33629 3.08328H10.9613C11.7095 3.07592 12.4348 3.34086 13.0021 3.82873C13.5694 4.31659 13.9399 4.99409 14.0446 5.73495C14.2398 7.21505 14.6019 8.66832 15.1238 10.067C15.3312 10.6188 15.3761 11.2185 15.2531 11.7951C15.1302 12.3716 14.8445 12.9008 14.43 13.3199L12.4721 15.2779C14.6668 19.1375 17.8625 22.3332 21.7221 24.5279L23.68 22.5699C24.0992 22.1554 24.6284 21.8698 25.2049 21.7468C25.7815 21.6239 26.3812 21.6688 26.933 21.8762C28.3317 22.3981 29.7849 22.7602 31.265 22.9554C32.0139 23.061 32.6979 23.4382 33.1868 24.0153C33.6757 24.5923 33.9355 25.3289 33.9167 26.0849Z" stroke="#DAF204" stroke-opacity="0.9" stroke-width="2" stroke-linecap="round" stroke-linejoin="round"/>
</svg>
